<mxfile host="app.diagrams.net" agent="Mozilla/5.0 (Windows NT 10.0; Win64; x64) AppleWebKit/537.36 (KHTML, like Gecko) Chrome/141.0.0.0 Safari/537.36" version="28.2.7">
  <diagram name="PÃ¡gina-1" id="3kWoRrX-BoDFpl3eNrct">
    <mxGraphModel dx="1426" dy="785" grid="1" gridSize="10" guides="1" tooltips="1" connect="0" arrows="1" fold="1" page="1" pageScale="1" pageWidth="1654" pageHeight="2336" math="0" shadow="0">
      <root>
        <mxCell id="0" />
        <mxCell id="1" parent="0" />
        <mxCell id="aYqZYjRhjxFAoLcGiag0-1" value="Departamento" style="swimlane;childLayout=stackLayout;horizontal=1;startSize=50;horizontalStack=0;rounded=1;fontSize=14;fontStyle=0;strokeWidth=2;resizeParent=0;resizeLast=1;shadow=0;dashed=0;align=center;arcSize=4;whiteSpace=wrap;html=1;" parent="1" vertex="1">
          <mxGeometry x="180" y="90" width="160" height="120" as="geometry" />
        </mxCell>
        <mxCell id="aYqZYjRhjxFAoLcGiag0-2" value="&lt;div&gt;&lt;u&gt;CodDepartamento&lt;/u&gt;&lt;/div&gt;&lt;div&gt;NomeDepartamento&lt;/div&gt;" style="align=left;strokeColor=none;fillColor=none;spacingLeft=4;spacingRight=4;fontSize=12;verticalAlign=top;resizable=0;rotatable=0;part=1;html=1;whiteSpace=wrap;" parent="aYqZYjRhjxFAoLcGiag0-1" vertex="1">
          <mxGeometry y="50" width="160" height="70" as="geometry" />
        </mxCell>
        <mxCell id="m5gGtSoCaU6zJaFe6KiX-2" value="Cliente" style="swimlane;childLayout=stackLayout;horizontal=1;startSize=50;horizontalStack=0;rounded=1;fontSize=14;fontStyle=0;strokeWidth=2;resizeParent=0;resizeLast=1;shadow=0;dashed=0;align=center;arcSize=4;whiteSpace=wrap;html=1;" parent="1" vertex="1">
          <mxGeometry x="560" y="80" width="160" height="120" as="geometry" />
        </mxCell>
        <mxCell id="m5gGtSoCaU6zJaFe6KiX-3" value="&lt;div&gt;&lt;u&gt;EmailCliente&lt;/u&gt;&lt;/div&gt;&lt;div&gt;PassCliente&lt;/div&gt;&lt;div&gt;NomeCliente&lt;/div&gt;&lt;div&gt;TelefCliente&lt;/div&gt;" style="align=left;strokeColor=none;fillColor=none;spacingLeft=4;spacingRight=4;fontSize=12;verticalAlign=top;resizable=0;rotatable=0;part=1;html=1;whiteSpace=wrap;" parent="m5gGtSoCaU6zJaFe6KiX-2" vertex="1">
          <mxGeometry y="50" width="160" height="70" as="geometry" />
        </mxCell>
        <mxCell id="m5gGtSoCaU6zJaFe6KiX-4" value="Tipo_cliente" style="swimlane;childLayout=stackLayout;horizontal=1;startSize=50;horizontalStack=0;rounded=1;fontSize=14;fontStyle=0;strokeWidth=2;resizeParent=0;resizeLast=1;shadow=0;dashed=0;align=center;arcSize=4;whiteSpace=wrap;html=1;" parent="1" vertex="1">
          <mxGeometry x="1000" y="90" width="160" height="120" as="geometry" />
        </mxCell>
        <mxCell id="m5gGtSoCaU6zJaFe6KiX-5" value="&lt;u&gt;CodTipoCliente&lt;/u&gt;&lt;br&gt;TipoCliente" style="align=left;strokeColor=none;fillColor=none;spacingLeft=4;spacingRight=4;fontSize=12;verticalAlign=top;resizable=0;rotatable=0;part=1;html=1;whiteSpace=wrap;" parent="m5gGtSoCaU6zJaFe6KiX-4" vertex="1">
          <mxGeometry y="50" width="160" height="70" as="geometry" />
        </mxCell>
        <mxCell id="m5gGtSoCaU6zJaFe6KiX-6" value="Tecnico" style="swimlane;childLayout=stackLayout;horizontal=1;startSize=50;horizontalStack=0;rounded=1;fontSize=14;fontStyle=0;strokeWidth=2;resizeParent=0;resizeLast=1;shadow=0;dashed=0;align=center;arcSize=4;whiteSpace=wrap;html=1;" parent="1" vertex="1">
          <mxGeometry x="200" y="360" width="160" height="120" as="geometry" />
        </mxCell>
        <mxCell id="m5gGtSoCaU6zJaFe6KiX-7" value="&lt;div&gt;&lt;u&gt;NumTecnico&lt;/u&gt;&lt;/div&gt;&lt;div&gt;PassTecnico&lt;/div&gt;&lt;div&gt;NomeTecnico&lt;/div&gt;&lt;div&gt;EmailTecnico&lt;/div&gt;&lt;div&gt;&lt;br&gt;&lt;/div&gt;" style="align=left;strokeColor=none;fillColor=none;spacingLeft=4;spacingRight=4;fontSize=12;verticalAlign=top;resizable=0;rotatable=0;part=1;html=1;whiteSpace=wrap;" parent="m5gGtSoCaU6zJaFe6KiX-6" vertex="1">
          <mxGeometry y="50" width="160" height="70" as="geometry" />
        </mxCell>
        <mxCell id="m5gGtSoCaU6zJaFe6KiX-8" value="Msgs" style="swimlane;childLayout=stackLayout;horizontal=1;startSize=50;horizontalStack=0;rounded=1;fontSize=14;fontStyle=0;strokeWidth=2;resizeParent=0;resizeLast=1;shadow=0;dashed=0;align=center;arcSize=4;whiteSpace=wrap;html=1;" parent="1" vertex="1">
          <mxGeometry x="490" y="550" width="160" height="120" as="geometry" />
        </mxCell>
        <mxCell id="RBNSCcVou5LGdq70FKpF-9" value="&lt;u&gt;IdMsgs&lt;br&gt;&lt;/u&gt;DataMensagem&lt;br&gt;Mensagem" style="align=left;strokeColor=none;fillColor=none;spacingLeft=4;spacingRight=4;fontSize=12;verticalAlign=top;resizable=0;rotatable=0;part=1;html=1;whiteSpace=wrap;" vertex="1" parent="m5gGtSoCaU6zJaFe6KiX-8">
          <mxGeometry y="50" width="160" height="70" as="geometry" />
        </mxCell>
        <mxCell id="m5gGtSoCaU6zJaFe6KiX-10" value="Ticket" style="swimlane;childLayout=stackLayout;horizontal=1;startSize=50;horizontalStack=0;rounded=1;fontSize=14;fontStyle=0;strokeWidth=2;resizeParent=0;resizeLast=1;shadow=0;dashed=0;align=center;arcSize=4;whiteSpace=wrap;html=1;" parent="1" vertex="1">
          <mxGeometry x="620" y="330" width="160" height="120" as="geometry" />
        </mxCell>
        <mxCell id="m5gGtSoCaU6zJaFe6KiX-11" value="&lt;u&gt;IdTicket&lt;br&gt;&lt;/u&gt;DataTicket&lt;br&gt;Resolvido?" style="align=left;strokeColor=none;fillColor=none;spacingLeft=4;spacingRight=4;fontSize=12;verticalAlign=top;resizable=0;rotatable=0;part=1;html=1;whiteSpace=wrap;" parent="m5gGtSoCaU6zJaFe6KiX-10" vertex="1">
          <mxGeometry y="50" width="160" height="70" as="geometry" />
        </mxCell>
        <mxCell id="m5gGtSoCaU6zJaFe6KiX-12" value="Tipo_Urgencia" style="swimlane;childLayout=stackLayout;horizontal=1;startSize=50;horizontalStack=0;rounded=1;fontSize=14;fontStyle=0;strokeWidth=2;resizeParent=0;resizeLast=1;shadow=0;dashed=0;align=center;arcSize=4;whiteSpace=wrap;html=1;" parent="1" vertex="1">
          <mxGeometry x="1110" y="320" width="160" height="120" as="geometry" />
        </mxCell>
        <mxCell id="m5gGtSoCaU6zJaFe6KiX-13" value="&lt;div&gt;&lt;u&gt;CalTipoUrgencia&lt;/u&gt;&lt;/div&gt;&lt;div&gt;TipoUrgencia&lt;/div&gt;&lt;div&gt;&lt;br&gt;&lt;/div&gt;" style="align=left;strokeColor=none;fillColor=none;spacingLeft=4;spacingRight=4;fontSize=12;verticalAlign=top;resizable=0;rotatable=0;part=1;html=1;whiteSpace=wrap;" parent="m5gGtSoCaU6zJaFe6KiX-12" vertex="1">
          <mxGeometry y="50" width="160" height="70" as="geometry" />
        </mxCell>
        <mxCell id="m5gGtSoCaU6zJaFe6KiX-14" value="Tipo_Problema" style="swimlane;childLayout=stackLayout;horizontal=1;startSize=50;horizontalStack=0;rounded=1;fontSize=14;fontStyle=0;strokeWidth=2;resizeParent=0;resizeLast=1;shadow=0;dashed=0;align=center;arcSize=4;whiteSpace=wrap;html=1;" parent="1" vertex="1">
          <mxGeometry x="1110" y="510" width="160" height="120" as="geometry" />
        </mxCell>
        <mxCell id="m5gGtSoCaU6zJaFe6KiX-15" value="&lt;div&gt;&lt;u&gt;CodTipoProblemas&lt;/u&gt;&lt;/div&gt;&lt;div&gt;TipoProblema&lt;/div&gt;" style="align=left;strokeColor=none;fillColor=none;spacingLeft=4;spacingRight=4;fontSize=12;verticalAlign=top;resizable=0;rotatable=0;part=1;html=1;whiteSpace=wrap;" parent="m5gGtSoCaU6zJaFe6KiX-14" vertex="1">
          <mxGeometry y="50" width="160" height="70" as="geometry" />
        </mxCell>
        <mxCell id="RBNSCcVou5LGdq70FKpF-10" style="edgeStyle=orthogonalEdgeStyle;rounded=0;orthogonalLoop=1;jettySize=auto;html=1;entryX=-0.006;entryY=0.186;entryDx=0;entryDy=0;entryPerimeter=0;exitX=-0.012;exitY=0.7;exitDx=0;exitDy=0;exitPerimeter=0;" edge="1" parent="1" source="RBNSCcVou5LGdq70FKpF-9" target="m5gGtSoCaU6zJaFe6KiX-7">
          <mxGeometry relative="1" as="geometry">
            <mxPoint x="190" y="425" as="targetPoint" />
          </mxGeometry>
        </mxCell>
        <mxCell id="RBNSCcVou5LGdq70FKpF-11" style="edgeStyle=orthogonalEdgeStyle;rounded=0;orthogonalLoop=1;jettySize=auto;html=1;exitX=0;exitY=0.714;exitDx=0;exitDy=0;exitPerimeter=0;entryX=-0.025;entryY=0.157;entryDx=0;entryDy=0;entryPerimeter=0;" edge="1" parent="1" source="RBNSCcVou5LGdq70FKpF-9" target="m5gGtSoCaU6zJaFe6KiX-11">
          <mxGeometry relative="1" as="geometry">
            <mxPoint x="610" y="390" as="targetPoint" />
            <Array as="points">
              <mxPoint x="470" y="650" />
              <mxPoint x="470" y="391" />
            </Array>
          </mxGeometry>
        </mxCell>
        <mxCell id="RBNSCcVou5LGdq70FKpF-12" style="edgeStyle=orthogonalEdgeStyle;rounded=0;orthogonalLoop=1;jettySize=auto;html=1;entryX=0;entryY=0.143;entryDx=0;entryDy=0;entryPerimeter=0;exitX=-0.006;exitY=0.757;exitDx=0;exitDy=0;exitPerimeter=0;" edge="1" parent="1" source="RBNSCcVou5LGdq70FKpF-9" target="m5gGtSoCaU6zJaFe6KiX-3">
          <mxGeometry relative="1" as="geometry">
            <mxPoint x="380" y="647" as="sourcePoint" />
            <Array as="points">
              <mxPoint x="489" y="650" />
              <mxPoint x="470" y="650" />
              <mxPoint x="470" y="140" />
            </Array>
          </mxGeometry>
        </mxCell>
      </root>
    </mxGraphModel>
  </diagram>
</mxfile>
